# xmcd CD database file
#
# Track frame offsets:
#	150
#	18222
#	37048
#	49362
#
# Disc length: 794 seconds
#
# Revision: 0
# Processed by: cddbd v1.5.1PL2 Copyright (c) Steve Scherf et al.
# Submitted via: CDex 1.51
#
DISCID=2d031804
DTITLE=Summer Snow Surprise - ブートレッグ02
DYEAR=2006
DGENRE=Hip-Hop
TTITLE0=We Set Music Free
TTITLE1=Phone Call
TTITLE2=HIGHWAY☆STARS
TTITLE3=MICROPHONES BE AMBITIOUS(Melody)
EXTD=YEAR: 2006.02.19
EXTT0=
EXTT1=
EXTT2=
EXTT3=
PLAYORDER=
